<svg width="20" height="20" viewBox="0 0 20 20" fill="none" xmlns="http://www.w3.org/2000/svg">
<path d="M10 5.75C8.11 5.75 7.75 6.54 7.75 8V8.62H12.25V8C12.25 6.54 11.89 5.75 10 5.75Z" fill="#219653"/>
<path d="M9.99795 13.0979C10.2897 13.0979 10.5695 12.9821 10.7758 12.7758C10.9821 12.5695 11.0979 12.2897 11.0979 11.9979C11.0979 11.7062 10.9821 11.4264 10.7758 11.2201C10.5695 11.0138 10.2897 10.8979 9.99795 10.8979C9.70621 10.8979 9.42642 11.0138 9.22013 11.2201C9.01384 11.4264 8.89795 11.7062 8.89795 11.9979C8.89795 12.2897 9.01384 12.5695 9.22013 12.7758C9.42642 12.9821 9.70621 13.0979 9.99795 13.0979Z" fill="#219653"/>
<path d="M10 0C4.48 0 0 4.48 0 10C0 15.52 4.48 20 10 20C15.52 20 20 15.52 20 10C20 4.48 15.52 0 10 0ZM15.38 12.5C15.38 14.7 14.7 15.38 12.5 15.38H7.5C5.3 15.38 4.62 14.7 4.62 12.5V11.5C4.62 9.79 5.03 9 6.25 8.73V8C6.25 7.07 6.25 4.25 10 4.25C13.75 4.25 13.75 7.07 13.75 8V8.73C14.97 9 15.38 9.79 15.38 11.5V12.5Z" fill="#219653"/>
</svg>
