<svg width="25" height="23" viewBox="0 0 25 23" fill="none" xmlns="http://www.w3.org/2000/svg">
<path d="M19.8332 13.5356C17.2548 13.5356 15.1665 15.624 15.1665 18.2023C15.1665 19.0773 15.4115 19.9056 15.8432 20.6056C16.2545 21.2969 16.8387 21.8691 17.5383 22.266C18.2379 22.6628 19.0288 22.8706 19.8332 22.869C21.5365 22.869 23.0182 21.959 23.8232 20.6056C24.2548 19.9056 24.4998 19.0773 24.4998 18.2023C24.4998 15.624 22.4115 13.5356 19.8332 13.5356ZM22.2482 17.7006L19.7632 19.999C19.5998 20.1506 19.3782 20.2323 19.1682 20.2323C18.9465 20.2323 18.7248 20.1506 18.5498 19.9756L17.3948 18.8206C17.2321 18.656 17.1409 18.4338 17.1409 18.2023C17.1409 17.9708 17.2321 17.7486 17.3948 17.584C17.7332 17.2456 18.2932 17.2456 18.6315 17.584L19.1915 18.144L21.0582 16.4173C21.4082 16.0906 21.9682 16.114 22.2948 16.464C22.6215 16.814 22.5982 17.3623 22.2482 17.7006Z" fill="white"/>
<path d="M23.3333 4.84167V5.36667C23.3333 6.00833 22.8083 6.53333 22.1667 6.53333H1.16667C0.525 6.53333 0 6.00833 0 5.36667V4.83C0 2.15833 2.15833 0 4.83 0H18.4917C21.1633 0 23.3333 2.17 23.3333 4.84167Z" fill="white"/>
<path d="M0 9.45006V15.2367C0 17.9084 2.15833 20.0667 4.83 20.0667H12.1333C12.81 20.0667 13.3933 19.4951 13.335 18.8184C13.1717 17.0334 13.7433 15.0967 15.33 13.5567C15.9833 12.9151 16.7883 12.4251 17.6633 12.1451C19.1217 11.6784 20.5333 11.7367 21.7817 12.1567C21.9572 12.2181 22.1448 12.2366 22.3289 12.2108C22.513 12.1849 22.6882 12.1155 22.84 12.0082C22.9919 11.9009 23.1158 11.7588 23.2016 11.5939C23.2874 11.429 23.3326 11.246 23.3333 11.0601V9.4384C23.3333 8.79673 22.8083 8.27173 22.1667 8.27173H1.16667C0.525 8.2834 0 8.8084 0 9.45006ZM7 16.1584H4.66667C4.18833 16.1584 3.79167 15.7617 3.79167 15.2834C3.79167 14.8051 4.18833 14.4084 4.66667 14.4084H7C7.47833 14.4084 7.875 14.8051 7.875 15.2834C7.875 15.7617 7.47833 16.1584 7 16.1584Z" fill="white"/>
</svg>
