<svg width="21" height="24" viewBox="0 0 21 24" fill="none" xmlns="http://www.w3.org/2000/svg">
<path d="M17.605 2.45292L11.7833 0.27125C10.815 -0.0904167 9.22833 -0.0904167 8.26 0.27125L2.43833 2.45292C1.09667 2.95458 0 4.54125 0 5.96458V14.6329C0 16.0096 0.91 17.8179 2.01833 18.6463L7.035 22.3913C8.68 23.6279 11.3867 23.6279 13.0317 22.3913L18.0483 18.6463C19.1567 17.8179 20.0667 16.0096 20.0667 14.6329V5.96458C20.0433 4.54125 18.9467 2.95458 17.605 2.45292ZM9.94 5.85958C11.3167 5.85958 12.4367 6.97958 12.4367 8.35625C12.4367 9.70958 11.375 10.7946 10.0333 10.8413H9.91667C8.51667 10.7946 7.46667 9.70958 7.46667 8.35625C7.455 6.97958 8.575 5.85958 9.94 5.85958ZM12.5767 16.7446C11.865 17.2113 10.9433 17.4563 10.0217 17.4563C9.1 17.4563 8.16667 17.2229 7.46667 16.7446C6.80167 16.3013 6.44 15.6946 6.42833 15.0296C6.42833 14.3763 6.80167 13.7463 7.46667 13.3029C8.87833 12.3696 11.1767 12.3696 12.5883 13.3029C13.2533 13.7463 13.6267 14.3529 13.6267 15.0179C13.615 15.6713 13.2417 16.3013 12.5767 16.7446Z" fill="white"/>
</svg>
