<svg width="35" height="12" viewBox="0 0 35 12" fill="none" xmlns="http://www.w3.org/2000/svg">
<path d="M4.83293 11.874V10.9648C6.83586 10.8008 7.99113 9.75488 7.99113 8.09375C7.99113 6.67188 7.16399 5.81738 5.46867 5.39355L4.83293 5.25V2.19434C5.74211 2.31055 6.36418 2.91895 6.39153 3.69141H7.82024C7.77922 2.18066 6.61711 1.10059 4.83293 0.950195V0H3.89641V0.950195C2.04387 1.12109 0.915939 2.16016 0.915939 3.71875C0.915939 5.04492 1.75676 5.96094 3.28801 6.34375L3.89641 6.50098V9.73438C2.86418 9.61816 2.20793 9.03711 2.13957 8.19629H0.690353C0.697189 9.77539 1.94817 10.8418 3.89641 10.9717V11.874H4.83293ZM6.54192 8.23047C6.54192 9.13281 5.91985 9.69336 4.83293 9.75488V6.67871C6.00871 6.9248 6.54192 7.41699 6.54192 8.23047ZM2.37883 3.61621C2.37883 2.83008 3.02141 2.24219 3.89641 2.19434V5.05176C2.91203 4.84668 2.37883 4.35449 2.37883 3.61621ZM11.7337 6.47363H12.9641C14.263 6.47363 15.0696 7.12988 15.0696 8.19629C15.0696 9.16016 14.2083 9.84375 13.0052 9.84375C11.761 9.84375 10.9817 9.19434 10.886 8.25098H9.41629C9.51199 9.95312 10.8792 11.1221 13.0052 11.1221C15.0628 11.1221 16.6282 9.93945 16.6282 8.2168C16.6282 6.83594 15.6712 5.92676 14.1878 5.82422V5.79688C15.4114 5.57812 16.218 4.69629 16.218 3.46582C16.218 1.94824 14.8577 0.888672 12.9915 0.888672C11.0364 0.888672 9.73074 2.00293 9.61453 3.73242H11.0569C11.1458 2.76172 11.8567 2.14648 12.9231 2.14648C14.0921 2.14648 14.721 2.75488 14.721 3.6709C14.721 4.60059 13.9895 5.27051 12.9231 5.27051H11.7337V6.47363ZM18.1217 3.96484V3.97852H19.5709V3.95801C19.5709 2.93262 20.3844 2.15332 21.4645 2.15332C22.4899 2.15332 23.2829 2.85059 23.2829 3.72559C23.2829 4.49805 22.9684 5.01758 21.7653 6.26855L18.2038 9.89844V10.9375H24.9508V9.64551H20.2682V9.61133L22.736 7.12988C24.1784 5.65332 24.7936 4.79883 24.7936 3.65039C24.7936 2.08496 23.3922 0.888672 21.5123 0.888672C19.5504 0.888672 18.1217 2.1875 18.1217 3.96484ZM30.0469 11.1221C32.4121 11.1221 33.7998 9.13281 33.7998 5.98828C33.7998 2.86426 32.4053 0.888672 30.0469 0.888672C27.6953 0.888672 26.2803 2.87109 26.2803 5.99512C26.2803 9.13965 27.6816 11.1221 30.0469 11.1221ZM30.0469 9.83691C28.6387 9.83691 27.832 8.37402 27.832 5.99512C27.832 3.65039 28.6523 2.17383 30.0469 2.17383C31.4414 2.17383 32.2549 3.64355 32.2549 5.99512C32.2549 8.38086 31.4551 9.83691 30.0469 9.83691Z" fill="#EB5757"/>
<path d="M-7.62939e-05 6.62402H34.4014V7.61523H-7.62939e-05V6.62402Z" fill="#EB5757"/>
</svg>
