<svg width="33" height="12" viewBox="0 0 33 12" fill="none" xmlns="http://www.w3.org/2000/svg">
<path d="M4.83293 11.874V10.9648C6.83586 10.8008 7.99113 9.75488 7.99113 8.09375C7.99113 6.67188 7.16399 5.81738 5.46867 5.39355L4.83293 5.25V2.19434C5.74211 2.31055 6.36418 2.91895 6.39153 3.69141H7.82024C7.77922 2.18066 6.61711 1.10059 4.83293 0.950195V0H3.89641V0.950195C2.04387 1.12109 0.915939 2.16016 0.915939 3.71875C0.915939 5.04492 1.75676 5.96094 3.28801 6.34375L3.89641 6.50098V9.73438C2.86418 9.61816 2.20793 9.03711 2.13957 8.19629H0.690353C0.697189 9.77539 1.94817 10.8418 3.89641 10.9717V11.874H4.83293ZM6.54192 8.23047C6.54192 9.13281 5.91985 9.69336 4.83293 9.75488V6.67871C6.00871 6.9248 6.54192 7.41699 6.54192 8.23047ZM2.37883 3.61621C2.37883 2.83008 3.02141 2.24219 3.89641 2.19434V5.05176C2.91203 4.84668 2.37883 4.35449 2.37883 3.61621ZM12.0823 10.9375H13.5794V1.07324H12.0686L9.47098 2.91895V4.42285L12.0481 2.59082H12.0823V10.9375ZM19.6598 11.1221C21.7858 11.1221 23.276 9.7207 23.276 7.69727C23.276 5.7832 21.9157 4.39551 20.0221 4.39551C19.0582 4.39551 18.2516 4.77148 17.8209 5.39355H17.7868L18.0602 2.36523H22.7018V1.07324H16.8297L16.3102 6.65137H17.7116C18.0944 6.00195 18.8327 5.6123 19.6872 5.6123C20.9176 5.6123 21.7789 6.50098 21.7789 7.73828C21.7789 8.97559 20.9176 9.84375 19.6735 9.84375C18.5729 9.84375 17.7321 9.17383 17.6227 8.19629H16.1598C16.2487 9.91895 17.6911 11.1221 19.6598 11.1221ZM28.2559 11.1221C30.6211 11.1221 32.0088 9.13281 32.0088 5.98828C32.0088 2.86426 30.6143 0.888672 28.2559 0.888672C25.9043 0.888672 24.4893 2.87109 24.4893 5.99512C24.4893 9.13965 25.8906 11.1221 28.2559 11.1221ZM28.2559 9.83691C26.8477 9.83691 26.041 8.37402 26.041 5.99512C26.041 3.65039 26.8613 2.17383 28.2559 2.17383C29.6504 2.17383 30.4639 3.64355 30.4639 5.99512C30.4639 8.38086 29.6641 9.83691 28.2559 9.83691Z" fill="#EB5757"/>
<path d="M-7.62939e-05 6.62402H32.6104V7.61523H-7.62939e-05V6.62402Z" fill="#EB5757"/>
</svg>
