<svg width="20" height="19" viewBox="0 0 20 19" fill="none" xmlns="http://www.w3.org/2000/svg">
<path d="M0.75 11.1816H15.875C17.6442 11.1816 19.0833 12.6208 19.0833 14.39C19.0833 16.1591 17.6442 17.5983 15.875 17.5983C14.1058 17.5983 12.6667 16.1591 12.6667 14.39V13.9316" stroke="#2F80ED" stroke-width="1.5" stroke-miterlimit="10" stroke-linecap="round" stroke-linejoin="round"/>
<path d="M0.75 8.4318H15.875C17.635 8.4318 19.0833 6.99264 19.0833 5.22347C19.0833 3.46347 17.635 2.01514 15.875 2.01514C15.0248 2.01756 14.2102 2.35635 13.609 2.95751C13.0079 3.55866 12.6691 4.37331 12.6667 5.22347V5.6818" stroke="#2F80ED" stroke-width="1.5" stroke-miterlimit="10" stroke-linecap="round" stroke-linejoin="round"/>
<path d="M0.75 5.68167H7.45083C7.93853 5.68167 8.41527 5.53705 8.82078 5.2661C9.22628 4.99515 9.54233 4.61004 9.72897 4.15947C9.9156 3.7089 9.96443 3.2131 9.86929 2.73477C9.77414 2.25645 9.53929 1.81708 9.19444 1.47223C8.84959 1.12737 8.41022 0.892526 7.93189 0.797381C7.45357 0.702237 6.95777 0.751068 6.5072 0.937701C6.05663 1.12433 5.67152 1.44039 5.40057 1.84589C5.12962 2.2514 4.985 2.72814 4.985 3.21583V3.56417" stroke="#2F80ED" stroke-width="1.5" stroke-miterlimit="10" stroke-linecap="round" stroke-linejoin="round"/>
</svg>
