<svg width="16" height="18" viewBox="0 0 16 18" fill="none" xmlns="http://www.w3.org/2000/svg">
<path d="M7.89242 14.7599C8.77647 14.7599 9.62432 14.4087 10.2494 13.7836C10.8746 13.1585 11.2257 12.3107 11.2257 11.4266C11.2257 10.5425 10.8746 9.69469 10.2494 9.06957C9.62432 8.44445 8.77647 8.09326 7.89242 8.09326C7.00836 8.09326 6.16051 8.44445 5.53539 9.06957C4.91027 9.69469 4.55908 10.5425 4.55908 11.4266C4.55908 12.3107 4.91027 13.1585 5.53539 13.7836C6.16051 14.4087 7.00836 14.7599 7.89242 14.7599V14.7599Z" stroke="#828282" stroke-width="1.2" stroke-miterlimit="10" stroke-linecap="round" stroke-linejoin="round"/>
<path d="M6.59229 11.4265L7.13395 11.9682C7.29229 12.1265 7.55062 12.1349 7.70895 11.9765L9.19229 10.6099" stroke="#828282" stroke-width="1.2" stroke-linecap="round" stroke-linejoin="round"/>
<path d="M5.39243 17.2599H10.3924C13.7424 17.2599 14.3424 15.9183 14.5174 14.2849L15.1424 9.28493C15.3674 7.2516 14.7841 5.59326 11.2258 5.59326H4.5591C1.00077 5.59326 0.417434 7.2516 0.642434 9.28493L1.26743 14.2849C1.44243 15.9183 2.04243 17.2599 5.39243 17.2599Z" stroke="#828282" stroke-width="1.2" stroke-miterlimit="10" stroke-linecap="round" stroke-linejoin="round"/>
<path d="M4.14258 5.31807V4.50973C4.14258 2.63473 5.65091 0.793067 7.52591 0.618067C8.04689 0.566882 8.57281 0.625341 9.06984 0.789682C9.56686 0.954023 10.024 1.22061 10.4117 1.57227C10.7995 1.92394 11.1094 2.3529 11.3214 2.83154C11.5333 3.31019 11.6428 3.82791 11.6426 4.3514V5.5014" stroke="#828282" stroke-width="1.2" stroke-miterlimit="10" stroke-linecap="round" stroke-linejoin="round"/>
</svg>
