<svg width="22" height="22" viewBox="0 0 22 22" fill="none" xmlns="http://www.w3.org/2000/svg">
<path d="M11.0002 17.4168C11.9726 17.4168 12.9053 17.0305 13.5929 16.3429C14.2805 15.6553 14.6668 14.7226 14.6668 13.7502C14.6668 12.7777 14.2805 11.8451 13.5929 11.1574C12.9053 10.4698 11.9726 10.0835 11.0002 10.0835C10.0277 10.0835 9.09507 10.4698 8.40744 11.1574C7.7198 11.8451 7.3335 12.7777 7.3335 13.7502C7.3335 14.7226 7.7198 15.6553 8.40744 16.3429C9.09507 17.0305 10.0277 17.4168 11.0002 17.4168V17.4168Z" stroke="#2F80ED" stroke-width="1.5" stroke-miterlimit="10" stroke-linecap="round" stroke-linejoin="round"/>
<path d="M9.57031 13.7504L10.1661 14.3462C10.3403 14.5204 10.6245 14.5295 10.7986 14.3554L12.4303 12.8521" stroke="#2F80ED" stroke-width="1.5" stroke-linecap="round" stroke-linejoin="round"/>
<path d="M8.25009 20.1668H13.7501C17.4351 20.1668 18.0951 18.691 18.2876 16.8943L18.9751 11.3943C19.2226 9.15766 18.5809 7.3335 14.6668 7.3335H7.33342C3.41925 7.3335 2.77759 9.15766 3.02509 11.3943L3.71259 16.8943C3.90509 18.691 4.56509 20.1668 8.25009 20.1668Z" stroke="#2F80ED" stroke-width="1.5" stroke-miterlimit="10" stroke-linecap="round" stroke-linejoin="round"/>
<path d="M6.875 7.03108V6.14191C6.875 4.07941 8.53417 2.05357 10.5967 1.86107C11.1697 1.80477 11.7483 1.86908 12.295 2.04985C12.8417 2.23063 13.3445 2.52387 13.7711 2.9107C14.1976 3.29753 14.5385 3.76939 14.7717 4.2959C15.0048 4.82241 15.1252 5.39191 15.125 5.96774V7.23274" stroke="#2F80ED" stroke-width="1.5" stroke-miterlimit="10" stroke-linecap="round" stroke-linejoin="round"/>
</svg>
