<svg width="16" height="19" viewBox="0 0 16 19" fill="none" xmlns="http://www.w3.org/2000/svg">
<path d="M7.93643 10.2752C8.27786 10.2752 8.61596 10.2079 8.9314 10.0773C9.24685 9.94662 9.53347 9.75511 9.7749 9.51367C10.0163 9.27224 10.2079 8.98562 10.3385 8.67017C10.4692 8.35473 10.5364 8.01663 10.5364 7.6752C10.5364 7.33376 10.4692 6.99567 10.3385 6.68022C10.2079 6.36477 10.0163 6.07815 9.7749 5.83672C9.53347 5.59529 9.24685 5.40377 8.9314 5.27311C8.61596 5.14245 8.27786 5.0752 7.93643 5.0752C7.24686 5.0752 6.58554 5.34912 6.09795 5.83672C5.61035 6.32431 5.33643 6.98563 5.33643 7.6752C5.33643 8.36476 5.61035 9.02608 6.09795 9.51367C6.58554 10.0013 7.24686 10.2752 7.93643 10.2752V10.2752Z" stroke="#2F80ED" stroke-width="1.5"/>
<path d="M0.953273 6.15834C2.59494 -1.05833 13.2866 -1.05 14.9199 6.16667C15.8783 10.4 13.2449 13.9833 10.9366 16.2C10.13 16.9779 9.05307 17.4127 7.93244 17.4127C6.81181 17.4127 5.73488 16.9779 4.92827 16.2C2.62827 13.9833 -0.00506016 10.3917 0.953273 6.15834V6.15834Z" stroke="#2F80ED" stroke-width="1.5"/>
</svg>
