<svg width="20" height="20" viewBox="0 0 20 20" fill="none" xmlns="http://www.w3.org/2000/svg">
<path d="M8.15043 1.33323L1.79793 6.42073C1.08293 6.98907 0.624595 8.1899 0.780429 9.08823L1.9996 16.3849C2.21959 17.6866 3.46626 18.7407 4.78626 18.7407H15.0529C16.3638 18.7407 17.6196 17.6774 17.8396 16.3849L19.0588 9.08823C19.2054 8.1899 18.7471 6.98907 18.0413 6.42073L11.6888 1.3424C10.7079 0.554068 9.12209 0.554068 8.15043 1.33323V1.33323Z" stroke="#2F80ED" stroke-width="1.5" stroke-linecap="round" stroke-linejoin="round"/>
<path d="M7.97656 11.93C9.14073 10.8209 10.6991 10.8209 11.8632 11.93" stroke="#2F80ED" stroke-width="1.5" stroke-linecap="round" stroke-linejoin="round"/>
<path d="M13.8059 9.98679C13.3336 9.52266 12.7886 9.13872 12.1926 8.85012C11.4825 8.50626 10.7037 8.32764 9.91469 8.32764C9.12568 8.32764 8.34691 8.50626 7.63677 8.85012C7.06844 9.12512 6.5276 9.50096 6.02344 9.98679" stroke="#2F80ED" stroke-width="1.5" stroke-linecap="round" stroke-linejoin="round"/>
<path d="M9.91504 14.3315H9.92337" stroke="#2F80ED" stroke-width="2" stroke-linecap="round" stroke-linejoin="round"/>
</svg>
