<svg width="18" height="16" viewBox="0 0 18 16" fill="none" xmlns="http://www.w3.org/2000/svg">
<path d="M11.8876 7.65002C11.8876 9.30002 10.5542 10.6334 8.90423 10.6334C7.25423 10.6334 5.9209 9.30002 5.9209 7.65002C5.9209 6.00002 7.25423 4.66669 8.90423 4.66669C10.5542 4.66669 11.8876 6.00002 11.8876 7.65002Z" stroke="#4F4F4F" stroke-width="1.5" stroke-linecap="round" stroke-linejoin="round"/>
<path d="M8.90417 14.5417C11.8458 14.5417 14.5875 12.8083 16.4958 9.80833C17.2458 8.63333 17.2458 6.65833 16.4958 5.48333C14.5875 2.48333 11.8458 0.75 8.90417 0.75C5.9625 0.75 3.22083 2.48333 1.3125 5.48333C0.5625 6.65833 0.5625 8.63333 1.3125 9.80833C3.22083 12.8083 5.9625 14.5417 8.90417 14.5417Z" stroke="#4F4F4F" stroke-width="1.5" stroke-linecap="round" stroke-linejoin="round"/>
</svg>
